<svg version="1.1" viewBox="0 0 800 200" xmlns="http://www.w3.org/2000/svg">
  <path d="m350 50v150h27c2.16 0 4-1.791 4-4v-93s5 9 14 24l39 67c1.785 3.74 5.744 6 9 6h27v-150h-27c-1.798 0-4 1.4941-4 4v94l-18-32-36-61c-1.752-3.1088-5.521-5-9-5h-26zm395 10v26c0 3.3137-2.686 6-6 6h-13v24h19v44c0 25.071 14.948 40 38 40h17v-26h-13c-8.943 0-14-4.5-14-15v-43h27v-24h-27v-32h-28zm-247 32v62c0 14.004 5.389 25.809 13 34 7.742 8.191 19.434 12 34 12s25.258-3.809 33-12 13-19.996 13-34v-62h-16c-0.414 0-1.589 0.0055-2 0-2.972-0.0401-5.04-0.089298-7 2-2.231 2.378-3 4.5652-3 8v52c0 8.059-0.457 13.037-4 17-3.543 3.831-6.783 5-14 5-7.086 0-11.457-1.169-15-5-3.543-3.963-4-8.941-4-17v-52c0-3.4348-0.769-4.7541-3-7-2.231-2.378-5.588-3-9-3h-16zm113 0 34 51-37 57h26c3.25 0 6.182-3.213 8-6l18-27 19 28c1.818 2.787 4.75 5 8 5h26l-37-56 34-52h-26c-3.277 0-6.188 1.1758-8 4l-16 24-15-23c-1.812-2.8242-5.723-5-9-5h-25z" fill="currentColor"/>
  <path d="m168 200h111c3.542 0 6.932-1.244 10-3s6.23-3.959 8-7 3.002-6.49 3-10.001-1.227-6.959-3-9.998l-75-129c-1.77-3.04-3.933-5.2448-7-7s-7.458-3-11-3-6.933 1.2448-10 3-5.23 3.96-7 7l-19 33-38-64.002c-1.772-3.0398-3.932-6.2427-7-7.9976-3.068-1.7549-6.458-2-10-2s-6.932 0.24509-10 2c-3.0677 1.7549-6.2283 4.9578-8 7.9976l-93 160c-1.773 3.039-1.9985 6.487-2 9.998-0.0015412 3.511 0.22965 6.96 2 10.001 1.7704 3.04 4.9324 5.244 8 7 3.0675 1.756 6.4578 3 10 3h70c27.737 0 47.925-12.442 62-36l34-59 18-31 55 94h-73l-18 32zm-79-32h-49l73-126 37 63-24.509 42.725c-9.347 15.285-20.003 20.275-36.491 20.275z" fill="#00DC82"/>
</svg>
